<svg width="219" height="40" viewBox="0 0 219 40" fill="none" xmlns="http://www.w3.org/2000/svg">
<path d="M51.5002 10.7429C51.8773 11.2572 53.3344 13.52 53.643 14.0686L52.6144 15.2514C52.2545 14.2743 51.1745 12.1657 50.6945 11.36L51.5002 10.7429ZM47.4888 8.80572H53.8144V10.3486H47.4888V8.80572ZM50.1459 5.53144H51.7059V21.44H50.1459V5.53144ZM50.0602 9.80001L51.0716 10.1429C50.4888 12.9372 49.2545 16.2629 47.8831 18.0114C47.7288 17.5657 47.3345 16.8972 47.0774 16.5029C48.3459 14.9943 49.5459 12.1657 50.0602 9.80001ZM54.0544 10.7943H62.6086V12.3543H54.0544V10.7943ZM53.1116 19.1257H63.1914V20.6857H53.1116V19.1257ZM57.3458 5.70287H59.0258V20.0343H57.3458V5.70287ZM71.077 10.2629H77.8141V11.6343H71.077V10.2629ZM69.6713 12.9372H78.534V14.3257H71.1284V21.44H69.6713V12.9372ZM70.3913 16.3657H78.4826V17.72H70.3913V16.3657ZM77.7626 12.9372H79.2369V19.6914C79.2369 20.3429 79.1512 20.7372 78.774 20.9943C78.3798 21.2343 77.8655 21.2514 77.1112 21.2514C77.0941 20.8572 76.9226 20.2572 76.7512 19.8629C77.1284 19.8629 77.4712 19.8629 77.5912 19.8629C77.7283 19.8629 77.7626 19.8114 77.7626 19.6743V12.9372ZM72.4999 13.4172H73.7341V21.1829H72.4999V13.4172ZM75.1227 13.4172H76.3741V21.1486H75.1227V13.4172ZM74.3855 5.41144L75.6884 6.25144C74.3513 8.42858 71.797 10.7086 69.5171 11.8914C69.2428 11.4457 68.7799 10.88 68.3513 10.52C70.6656 9.56001 73.1513 7.45144 74.3855 5.41144ZM75.1227 6.30287C76.2369 7.93144 78.4998 9.62858 80.5397 10.4343C80.1626 10.7429 79.6312 11.3943 79.3569 11.8229C77.2998 10.8286 75.0884 8.82287 73.8027 6.86858L75.1227 6.30287ZM68.0428 5.60001L69.5856 6.06287C68.5399 8.96001 66.8942 11.96 65.1457 13.9143C64.9914 13.52 64.5286 12.6629 64.2371 12.2686C65.7628 10.64 67.1857 8.12001 68.0428 5.60001ZM66.2942 10.2457L67.8371 8.70287V8.72001V21.4229H66.2942V10.2457ZM82.2026 12.44H87.8939V13.8286H82.2026V12.44ZM81.774 15.3029H97.288V16.7086H81.774V15.3029ZM82.2197 9.69715H96.8423V11.0514H82.2197V9.69715ZM82.6997 17.9086H96.2595V19.2629H82.6997V17.9086ZM88.6482 10.2114H90.2596V21.4572H88.6482V10.2114ZM84.534 11.4457H86.0425V14.9429H84.534V11.4457ZM92.9853 11.4457H94.5109V14.9429H92.9853V11.4457ZM85.6997 5.53144H87.2939V9.25144H85.6997V5.53144ZM91.631 5.53144H93.2253V9.25144H91.631V5.53144ZM81.9111 6.66287H89.1967V8.08572H81.9111V6.66287ZM89.8139 6.66287H97.0995V8.08572H89.8139V6.66287ZM91.0653 12.3714H96.7566V13.76H91.0653V12.3714ZM105.654 5.58287H107.488C107.402 8.84001 107.282 17.36 100.048 21.4057C99.7566 20.9772 99.2252 20.4629 98.7109 20.1029C105.791 16.4343 105.585 8.34287 105.654 5.58287ZM107.316 7.67429C107.454 8.97715 108.088 16.9657 114.722 19.9314C114.242 20.3086 113.779 20.8572 113.539 21.32C106.648 18.0629 105.996 9.44001 105.756 7.84572L107.316 7.67429ZM129.756 5.72001L130.99 6.88572C128.522 7.46858 124.973 7.88001 121.991 8.08572C121.922 7.74287 121.716 7.22858 121.511 6.90287C124.39 6.66287 127.785 6.21715 129.756 5.72001ZM122.316 9.56001H131.608V10.88H122.316V9.56001ZM124.51 14.9429H129.808V16.04H124.51V14.9429ZM124.373 19.4343H129.825V20.6686H124.373V19.4343ZM124.373 17.1372H129.67V18.2343H124.373V17.1372ZM123.499 12.5257H130.785V21.4057H129.19V13.7943H125.008V21.4057H123.499V12.5257ZM121.511 6.90287H122.951V12.5086C122.951 15.3886 122.728 18.8857 121.151 21.44C120.876 21.2172 120.293 20.8914 119.951 20.7372C121.339 18.3714 121.511 15.0629 121.511 12.5086V6.90287ZM118.648 5.53144L120.122 6.08001C119.231 7.50287 117.859 9.08001 116.591 10.1257C116.419 9.78287 116.008 9.18287 115.751 8.89144C116.848 8.01715 118.031 6.62858 118.648 5.53144ZM119.059 9.28572L120.465 9.81715C119.453 11.7029 117.842 13.7257 116.402 15.0114C116.282 14.6686 115.871 13.8457 115.613 13.4514C116.882 12.4229 118.219 10.8286 119.059 9.28572ZM117.756 12.44L119.231 10.9657L119.248 10.9829V21.44H117.756V12.44ZM126.31 7.94858H127.888V13.3143H126.31V7.94858ZM137.71 7.70858H148.647V9.04572H137.71V7.70858ZM142.219 8.29144L144.087 8.42858C143.744 9.32001 143.282 10.2629 142.939 10.88L141.602 10.6743C141.842 9.9543 142.116 8.97715 142.219 8.29144ZM145.219 5.53144L146.796 5.97715C146.23 6.8343 145.647 7.74287 145.15 8.32572L143.864 7.9143C144.344 7.26287 144.91 6.25144 145.219 5.53144ZM139.356 6.09715L140.642 5.58287C141.07 6.13144 141.585 6.90287 141.807 7.40001L140.47 8.00001C140.265 7.48572 139.785 6.68001 139.356 6.09715ZM140.607 13.6572V14.8743H145.647V13.6572H140.607ZM140.607 15.9543V17.1886H145.647V15.9543H140.607ZM140.607 11.36V12.5772H145.647V11.36H140.607ZM139.082 10.1772H147.259V18.3714H139.082V10.1772ZM133.682 6.28572L134.899 5.54858C135.687 6.37144 136.647 7.45144 137.127 8.1543L135.876 9.04572C135.413 8.32572 134.453 7.12572 133.682 6.28572ZM133.15 9.50858H136.853V10.8286H133.15V9.50858ZM136.39 17.1886C137.385 19.4686 139.527 19.76 142.802 19.7772C144.602 19.7772 147.259 19.6743 149.093 19.52C148.87 19.8457 148.647 20.6 148.562 21.0457C146.882 21.1486 144.704 21.1829 142.767 21.1829C138.773 21.1829 136.579 20.6857 135.31 17.6686L136.39 17.1886ZM136.339 13.7429H136.716L136.99 13.7086L137.779 14C137.196 17.72 135.773 20.1886 133.819 21.4743C133.613 21.1657 133.082 20.6 132.773 20.3772C134.607 19.2457 135.876 17.0857 136.339 14V13.7429ZM133.425 15.2686V14.0857L134.093 13.7429H136.836L136.819 15.0286H134.453C134.025 15.0286 133.562 15.1314 133.425 15.2686ZM133.425 15.2686C133.322 14.9257 133.013 14.2057 132.859 13.8972C133.133 13.8286 133.408 13.7086 133.716 13.3657C134.247 12.8514 135.876 10.5886 136.459 9.66287V9.61144L136.905 9.42287L137.933 9.90287C137.11 11.0686 135.55 13.2286 134.573 14.3429C134.573 14.3429 133.425 14.8914 133.425 15.2686ZM154.921 6.80001H160.681V9.95429H159.344V7.96572H154.921V6.80001ZM154.441 9.21715H161.693V10.4857H154.441V9.21715ZM156.773 5.53144L158.161 5.63429C157.956 7.07429 157.647 8.8743 157.407 9.97144H156.001C156.276 8.80572 156.601 6.93715 156.773 5.53144ZM156.207 12.32V13.64H159.756V12.32H156.207ZM155.007 11.2229H161.058V14.7372H155.007V11.2229ZM157.921 14.4457H159.379V21.4572H157.921V14.4457ZM161.761 6.56001H165.79V8.01715H161.761V6.56001ZM161.47 11.1543H166.081V12.6286H161.47V11.1543ZM163.201 11.8229H164.727V19.5543C164.727 20.3429 164.607 20.7886 164.076 21.0457C163.578 21.3029 162.807 21.3372 161.71 21.3372C161.658 20.8914 161.47 20.2572 161.298 19.7943C162.036 19.8114 162.721 19.8114 162.927 19.8114C163.15 19.7943 163.201 19.7429 163.201 19.5543V11.8229ZM152.813 5.53144L154.27 6.08001C153.396 7.50287 152.024 9.08001 150.756 10.1257C150.567 9.78287 150.173 9.18287 149.916 8.89144C150.996 8.01715 152.213 6.62858 152.813 5.53144ZM153.139 9.04572L154.544 9.54287C153.567 11.6 152.059 13.8114 150.653 15.2343C150.499 14.9086 150.036 14.1372 149.762 13.7943C151.013 12.5943 152.316 10.8114 153.139 9.04572ZM151.922 12.44L153.396 10.9657V10.9829V21.44H151.922V12.44ZM154.287 15.6629H161.521V16.8457H154.287V15.6629ZM155.11 18.2686H161.898V19.4686H154.853L155.11 18.2686ZM154.973 16.6057L156.259 16.7086C156.139 17.6343 155.984 18.7314 155.83 19.4686H154.493C154.681 18.6972 154.87 17.5314 154.973 16.6057ZM175.098 10.8457V12.7314H180.944V10.8457H175.098ZM175.098 7.69144V9.54287H180.944V7.69144H175.098ZM173.624 6.30287H182.504V14.12H173.624V6.30287ZM173.453 15.9029H182.71V17.3772H173.453V15.9029ZM172.184 19.4172H183.292V20.8914H172.184V19.4172ZM167.367 6.61144H172.87V8.13715H167.367V6.61144ZM167.538 11.5657H172.595V13.0743H167.538V11.5657ZM167.178 18.1143C168.601 17.72 170.727 17.0514 172.733 16.3829L173.024 17.9429C171.138 18.5772 169.133 19.2457 167.556 19.76L167.178 18.1143ZM169.39 7.21144H170.95V17.8057L169.39 18.08V7.21144ZM177.344 6.92001H178.732V13.4514H178.87V20.1029H177.207V13.4514H177.344V6.92001ZM186.721 12.5772H191.007V13.8629H186.721V12.5772ZM185.11 7.22858H190.407V8.61715H185.11V7.22858ZM184.407 10.0743H192.755V11.48H184.407V10.0743ZM187.235 5.53144H188.744V10.7943H187.235V5.53144ZM191.589 5.94287L193.081 6.38858C191.452 10.2972 188.692 13.3143 185.367 15.2C185.144 14.8914 184.578 14.2572 184.252 13.9657C187.544 12.32 190.167 9.49144 191.589 5.94287ZM187.955 15.2514H189.481V19.8286C189.481 20.5829 189.344 20.9772 188.812 21.1829C188.281 21.4229 187.51 21.4229 186.412 21.4229C186.344 21.0114 186.138 20.4457 185.932 20.0343C186.704 20.0686 187.441 20.0514 187.664 20.0514C187.887 20.0343 187.955 19.9829 187.955 19.7943V15.2514ZM190.578 12.5772H190.904L191.212 12.4914L192.121 13.1943C191.212 14.24 189.892 15.3886 188.744 16.0914C188.572 15.8343 188.195 15.44 187.955 15.2514C188.915 14.6343 190.029 13.5886 190.578 12.8514V12.5772ZM184.407 16.7086C186.498 16.5029 189.687 16.1429 192.704 15.8L192.721 17.1886C189.824 17.5486 186.738 17.9257 184.595 18.1657L184.407 16.7086ZM194.144 8.70287H200.332V10.2114H194.144V8.70287ZM194.504 5.53144L196.149 5.78858C195.549 9.09715 194.504 12.2343 193.012 14.24C192.738 13.9486 192.069 13.3657 191.692 13.1086C193.115 11.3429 194.024 8.49715 194.504 5.53144ZM197.675 9.57715L199.338 9.73144C198.549 15.6286 196.749 19.3143 192.429 21.5086C192.258 21.1314 191.778 20.3943 191.469 20.0514C195.481 18.2172 197.058 14.8572 197.675 9.57715ZM195.001 9.92001C195.738 14.48 197.315 18.3714 200.486 20.0343C200.109 20.36 199.595 20.9943 199.355 21.44C195.944 19.4172 194.384 15.3372 193.544 10.16L195.001 9.92001ZM204.892 11.5314V13.9657H214.149V11.5314H204.892ZM203.521 10.4686H215.589V15.0114H203.521V10.4686ZM206.589 8.61715H212.486V9.71429H206.589V8.61715ZM208.783 10.8457H210.121V14.4457H208.783V10.8457ZM205.749 11.9772L206.932 11.6172C207.309 12.2172 207.686 13.0057 207.789 13.52L206.572 13.9314C206.452 13.4 206.126 12.5772 205.749 11.9772ZM211.852 11.5657L213.223 11.9429C212.829 12.68 212.435 13.4343 212.126 13.9314L211.012 13.5886C211.303 13.0229 211.681 12.1486 211.852 11.5657ZM204.498 15.68H214.715V21.3714H213.155V16.7772H206.024V21.44H204.498V15.68ZM205.492 17.72H212.332V18.8343H205.492V17.72ZM205.492 19.8114H213.618V20.9086H205.492V19.8114ZM209.281 5.42858L210.652 5.9943C208.801 8.3943 205.526 10.0572 202.321 11.0514C202.166 10.7257 201.738 10.04 201.464 9.73144C204.601 8.94287 207.704 7.46858 209.281 5.42858ZM210.292 6.1143C211.852 7.69144 214.903 9.04572 217.68 9.66287C217.338 9.95429 216.926 10.5372 216.703 10.9314C213.926 10.1772 210.875 8.56572 209.143 6.64572L210.292 6.1143Z" fill="black"/>
<path d="M47.5276 27.5048H48.8533V35.2381H47.5276V27.5048ZM50.0243 35.2381H48.334V34.0118H49.9912C50.3741 34.0118 50.7276 33.9566 51.0517 33.8461C51.3758 33.7356 51.6556 33.5699 51.8913 33.3489C52.1344 33.128 52.3222 32.8518 52.4547 32.5204C52.5947 32.1889 52.6647 31.806 52.6647 31.3714C52.6647 30.9368 52.5947 30.5539 52.4547 30.2225C52.3222 29.891 52.1344 29.6148 51.8913 29.3939C51.6556 29.1729 51.3758 29.0072 51.0517 28.8968C50.7276 28.7863 50.3741 28.731 49.9912 28.731H48.334V27.5048H50.0243C50.8124 27.5048 51.5047 27.6668 52.1012 27.9908C52.6978 28.3075 53.1618 28.7568 53.4932 29.3387C53.832 29.9131 54.0014 30.5907 54.0014 31.3714C54.0014 32.1521 53.832 32.8334 53.4932 33.4152C53.1618 33.9897 52.6978 34.4389 52.1012 34.763C51.5047 35.0797 50.8124 35.2381 50.0243 35.2381ZM56.4006 33.2495C56.4006 33.6104 56.4779 33.8903 56.6326 34.0891C56.7873 34.288 57.023 34.3874 57.3396 34.3874C57.5679 34.3874 57.7668 34.3432 57.9362 34.2548C58.1056 34.1591 58.2382 34.0266 58.3339 33.8571C58.4296 33.6804 58.4775 33.4778 58.4775 33.2495V30.1562H59.6706V35.2381H58.4775V34.4537C58.3155 34.7483 58.1056 34.9729 57.8478 35.1276C57.5974 35.2749 57.2954 35.3486 56.9419 35.3486C56.3748 35.3486 55.9366 35.1718 55.6273 34.8183C55.3253 34.4648 55.1743 33.986 55.1743 33.3821V30.1562H56.4006V33.2495ZM62.3764 30.1562V35.2381H61.1943V30.1562H62.3764ZM63.8899 31.4267C63.7794 31.3383 63.6763 31.272 63.5806 31.2278C63.4849 31.1836 63.3633 31.1615 63.216 31.1615C63.0172 31.1615 62.8552 31.213 62.7299 31.3162C62.6047 31.4193 62.5127 31.5629 62.4537 31.747C62.4022 31.9238 62.3764 32.1337 62.3764 32.3768L61.9787 32.1447C61.9787 31.7397 62.0523 31.3825 62.1996 31.0731C62.3543 30.7565 62.5495 30.506 62.7852 30.3219C63.0282 30.1378 63.2786 30.0457 63.5364 30.0457C63.7205 30.0457 63.8936 30.0751 64.0556 30.1341C64.2176 30.1856 64.3539 30.2814 64.4644 30.4213L63.8899 31.4267ZM66.4762 26.6209V35.2381H65.2831V26.6209H66.4762ZM68.5532 32.1447C68.5532 31.7691 68.4758 31.4856 68.3212 31.2941C68.1739 31.1026 67.9345 31.0068 67.6031 31.0068C67.3821 31.0068 67.187 31.0548 67.0176 31.1505C66.8482 31.2462 66.7157 31.3787 66.6199 31.5482C66.5242 31.7176 66.4762 31.9165 66.4762 32.1447H66.189C66.189 31.7397 66.2627 31.3788 66.41 31.0621C66.5573 30.7454 66.7635 30.4913 67.0286 30.2998C67.3012 30.1083 67.6289 30.0126 68.0118 30.0126C68.3875 30.0126 68.7042 30.0862 68.9619 30.2335C69.2271 30.3808 69.4259 30.6018 69.5585 30.8964C69.6911 31.1836 69.7573 31.5445 69.7573 31.979V35.2381H68.5532V32.1447ZM72.0221 33.6583C72.0221 33.8277 72.0625 33.9749 72.1436 34.1002C72.2245 34.218 72.335 34.3064 72.475 34.3653C72.6222 34.4243 72.788 34.4537 72.9721 34.4537C73.2078 34.4537 73.4214 34.4058 73.6129 34.3101C73.8118 34.2144 73.97 34.0744 74.0879 33.8903C74.2131 33.6988 74.2757 33.4778 74.2757 33.2274L74.4525 33.8903C74.4525 34.2144 74.3567 34.4868 74.1653 34.7078C73.9811 34.9214 73.7455 35.0834 73.4582 35.1939C73.1783 35.297 72.8911 35.3486 72.5965 35.3486C72.2798 35.3486 71.9852 35.286 71.7127 35.1608C71.4402 35.0355 71.2229 34.8514 71.0609 34.6084C70.8988 34.3653 70.8179 34.0708 70.8179 33.7246C70.8179 33.2311 70.9909 32.8407 71.3371 32.5535C71.6832 32.2589 72.173 32.1116 72.8064 32.1116C73.1452 32.1116 73.4361 32.1485 73.6792 32.2221C73.9296 32.2957 74.1357 32.3841 74.2978 32.4872C74.4598 32.5829 74.574 32.6713 74.6403 32.7524V33.36C74.4119 33.198 74.1689 33.0801 73.9112 33.0065C73.6534 32.9328 73.3809 32.896 73.0937 32.896C72.8432 32.896 72.6407 32.9291 72.4861 32.9954C72.3314 33.0544 72.2135 33.139 72.1325 33.2495C72.0588 33.36 72.0221 33.4963 72.0221 33.6583ZM71.6465 31.4819L71.1604 30.6423C71.3886 30.5024 71.6832 30.3661 72.0442 30.2335C72.4123 30.1009 72.8322 30.0347 73.3036 30.0347C73.7234 30.0347 74.0916 30.0972 74.4083 30.2225C74.7323 30.3477 74.9864 30.5281 75.1706 30.7638C75.3547 30.9921 75.4468 31.2757 75.4468 31.6145V35.2381H74.2757V31.8465C74.2757 31.6845 74.2462 31.5519 74.1874 31.4487C74.1358 31.3456 74.0621 31.2609 73.9664 31.1947C73.8706 31.1284 73.7565 31.0805 73.6239 31.051C73.4914 31.0216 73.3478 31.0068 73.1931 31.0068C72.9574 31.0068 72.7327 31.0363 72.5192 31.0952C72.3129 31.1468 72.1325 31.213 71.9779 31.2941C71.8305 31.3677 71.7201 31.4304 71.6465 31.4819ZM84.1069 32.0122V35.2381H82.9138V32.1447C82.9138 31.7618 82.8438 31.4782 82.7039 31.2941C82.5713 31.1026 82.3577 31.0068 82.0632 31.0068C81.8643 31.0068 81.6875 31.051 81.5329 31.1394C81.3855 31.2278 81.2677 31.3567 81.1794 31.5261C81.0983 31.6955 81.0578 31.9017 81.0578 32.1447V35.2381H79.8647V32.1447C79.8647 31.7618 79.7947 31.4782 79.6548 31.2941C79.5222 31.1026 79.3086 31.0068 79.0141 31.0068C78.8078 31.0068 78.6274 31.051 78.4727 31.1394C78.3254 31.2278 78.2112 31.3567 78.1303 31.5261C78.0492 31.6955 78.0087 31.9017 78.0087 32.1447V35.2381H76.8377V30.1562H78.0087V30.8964C78.156 30.6165 78.3475 30.4066 78.5832 30.2667C78.8263 30.1193 79.1098 30.0457 79.4339 30.0457C79.8095 30.0457 80.1188 30.123 80.3618 30.2777C80.6122 30.4324 80.7927 30.657 80.9032 30.9516C81.0799 30.657 81.3009 30.4324 81.566 30.2777C81.8385 30.123 82.1478 30.0457 82.494 30.0457C82.8549 30.0457 83.1531 30.123 83.3888 30.2777C83.6319 30.425 83.8123 30.646 83.9302 30.9406C84.048 31.2351 84.1069 31.5924 84.1069 32.0122ZM90.0029 31.3714C90.0029 31.9165 90.1245 32.3951 90.3675 32.8076C90.618 33.2201 90.942 33.5405 91.3397 33.7687C91.7448 33.9897 92.183 34.1002 92.6543 34.1002C93.0226 34.1002 93.354 34.0523 93.6486 33.9566C93.9433 33.8608 94.2084 33.7319 94.444 33.5699C94.6871 33.4005 94.897 33.2127 95.0737 33.0065V34.5531C94.7497 34.8183 94.3998 35.0208 94.0242 35.1608C93.6486 35.3007 93.1773 35.3707 92.6101 35.3707C92.0431 35.3707 91.5128 35.2749 91.0193 35.0834C90.5332 34.8919 90.1098 34.6157 89.7488 34.2548C89.388 33.894 89.1045 33.4705 88.8982 32.9844C88.6993 32.4909 88.5999 31.9532 88.5999 31.3714C88.5999 30.7896 88.6993 30.2556 88.8982 29.7695C89.1045 29.2761 89.388 28.8488 89.7488 28.488C90.1098 28.1271 90.5332 27.8509 91.0193 27.6594C91.5128 27.4679 92.0431 27.3722 92.6101 27.3722C93.1773 27.3722 93.6486 27.4422 94.0242 27.5821C94.3998 27.722 94.7497 27.9246 95.0737 28.1897V29.7364C94.897 29.5302 94.6871 29.346 94.444 29.184C94.2084 29.0146 93.9433 28.882 93.6486 28.7863C93.354 28.6906 93.0226 28.6427 92.6543 28.6427C92.183 28.6427 91.7448 28.7568 91.3397 28.9851C90.942 29.2061 90.618 29.5228 90.3675 29.9352C90.1245 30.3403 90.0029 30.819 90.0029 31.3714ZM97.7737 26.6209V35.2381H96.5804V26.6209H97.7737ZM99.8508 32.1447C99.8508 31.7691 99.7736 31.4856 99.6184 31.2941C99.4717 31.1026 99.2317 31.0068 98.9003 31.0068C98.6794 31.0068 98.4841 31.0548 98.3156 31.1505C98.146 31.2462 98.0127 31.3787 97.9175 31.5482C97.8213 31.7176 97.7737 31.9165 97.7737 32.1447H97.487C97.487 31.7397 97.5603 31.3788 97.708 31.0621C97.8546 30.7454 98.0613 30.4913 98.326 30.2998C98.5984 30.1083 98.926 30.0126 99.3098 30.0126C99.6851 30.0126 100.001 30.0862 100.259 30.2335C100.525 30.3808 100.723 30.6018 100.856 30.8964C100.989 31.1836 101.055 31.5445 101.055 31.979V35.2381H99.8508V32.1447ZM102.524 28.1345C102.524 27.9283 102.597 27.7551 102.745 27.6152C102.899 27.4753 103.076 27.4053 103.275 27.4053C103.489 27.4053 103.666 27.4753 103.806 27.6152C103.953 27.7551 104.027 27.9283 104.027 28.1345C104.027 28.3333 103.953 28.5064 103.806 28.6537C103.666 28.7936 103.489 28.8636 103.275 28.8636C103.076 28.8636 102.899 28.7936 102.745 28.6537C102.597 28.5064 102.524 28.3333 102.524 28.1345ZM102.69 30.1562H103.861V35.2381H102.69V30.1562ZM108.773 32.1447C108.773 31.7691 108.695 31.4856 108.541 31.2941C108.386 31.1026 108.147 31.0068 107.823 31.0068C107.602 31.0068 107.407 31.0548 107.237 31.1505C107.068 31.2388 106.935 31.3714 106.839 31.5482C106.744 31.7176 106.695 31.9165 106.695 32.1447V35.2381H105.503V30.1562H106.695V30.9406C106.858 30.6386 107.064 30.414 107.314 30.2667C107.573 30.1193 107.878 30.0457 108.232 30.0457C108.806 30.0457 109.244 30.2225 109.546 30.576C109.848 30.9222 109.999 31.4008 109.999 32.0122V35.2381H108.773V32.1447ZM113.732 35.3486C113.216 35.3486 112.76 35.2381 112.362 35.0171C111.973 34.7962 111.67 34.4868 111.456 34.0891C111.243 33.6914 111.136 33.2274 111.136 32.6971C111.136 32.1595 111.243 31.6918 111.456 31.2941C111.677 30.8964 111.987 30.5908 112.385 30.3771C112.782 30.1562 113.25 30.0457 113.788 30.0457C114.325 30.0457 114.782 30.1488 115.157 30.355C115.533 30.5612 115.82 30.8595 116.019 31.2499C116.226 31.6328 116.329 32.0968 116.329 32.6419C116.329 32.7008 116.325 32.7634 116.317 32.8297C116.317 32.896 116.313 32.9439 116.307 32.9733H111.843V32.1558H115.29L114.926 32.664C114.948 32.6198 114.97 32.5608 114.992 32.4872C115.021 32.4062 115.036 32.3399 115.036 32.2884C115.036 32.0159 114.981 31.7802 114.871 31.5813C114.767 31.3825 114.62 31.2278 114.429 31.1173C114.244 31.0068 114.027 30.9516 113.776 30.9516C113.474 30.9516 113.216 31.0179 113.003 31.1505C112.79 31.283 112.628 31.4746 112.517 31.7249C112.407 31.9753 112.348 32.2847 112.34 32.6529C112.34 33.0212 112.395 33.3342 112.506 33.592C112.616 33.8424 112.778 34.0339 112.992 34.1665C113.213 34.299 113.478 34.3653 113.788 34.3653C114.112 34.3653 114.395 34.299 114.638 34.1665C114.881 34.0339 115.084 33.8313 115.246 33.5588L116.273 33.9787C116.008 34.4353 115.666 34.7778 115.246 35.0061C114.826 35.2344 114.321 35.3486 113.732 35.3486ZM117.699 33.5699C117.861 33.7467 118.023 33.9013 118.186 34.0339C118.354 34.1591 118.524 34.2548 118.693 34.3211C118.863 34.3801 119.032 34.4095 119.202 34.4095C119.415 34.4095 119.581 34.3616 119.699 34.2659C119.824 34.1702 119.887 34.0376 119.887 33.8682C119.887 33.7208 119.839 33.5957 119.743 33.4926C119.648 33.3821 119.514 33.29 119.346 33.2164C119.176 33.1353 118.977 33.0544 118.749 32.9733C118.52 32.8849 118.292 32.7818 118.064 32.664C117.843 32.5387 117.659 32.3768 117.511 32.1779C117.371 31.979 117.302 31.7287 117.302 31.4267C117.302 31.1173 117.379 30.8595 117.533 30.6533C117.695 30.4471 117.91 30.2961 118.174 30.2004C118.447 30.0972 118.738 30.0457 119.047 30.0457C119.327 30.0457 119.589 30.0862 119.831 30.1672C120.082 30.2483 120.307 30.355 120.506 30.4876C120.704 30.6202 120.873 30.7711 121.013 30.9406L120.35 31.6476C120.181 31.4488 119.979 31.2868 119.743 31.1615C119.508 31.0363 119.265 30.9737 119.014 30.9737C118.845 30.9737 118.705 31.0106 118.594 31.0842C118.484 31.1578 118.429 31.2647 118.429 31.4046C118.429 31.5224 118.476 31.6292 118.572 31.7249C118.675 31.8133 118.808 31.8944 118.97 31.968C119.139 32.0416 119.327 32.1189 119.533 32.2C119.813 32.3105 120.07 32.432 120.307 32.5646C120.542 32.6971 120.73 32.8591 120.87 33.0507C121.017 33.2422 121.09 33.4926 121.09 33.8019C121.09 34.2807 120.925 34.6673 120.593 34.9619C120.27 35.2491 119.828 35.3927 119.268 35.3927C118.922 35.3927 118.602 35.3412 118.307 35.2381C118.02 35.1276 117.766 34.9877 117.545 34.8183C117.331 34.6415 117.151 34.4574 117.003 34.2659L117.699 33.5699ZM124.359 35.3486C123.844 35.3486 123.387 35.2381 122.989 35.0171C122.599 34.7962 122.297 34.4868 122.083 34.0891C121.869 33.6914 121.763 33.2274 121.763 32.6971C121.763 32.1595 121.869 31.6918 122.083 31.2941C122.304 30.8964 122.613 30.5908 123.011 30.3771C123.409 30.1562 123.876 30.0457 124.414 30.0457C124.952 30.0457 125.408 30.1488 125.784 30.355C126.16 30.5612 126.447 30.8595 126.646 31.2499C126.852 31.6328 126.955 32.0968 126.955 32.6419C126.955 32.7008 126.951 32.7634 126.944 32.8297C126.944 32.896 126.941 32.9439 126.933 32.9733H122.469V32.1558H125.917L125.552 32.664C125.574 32.6198 125.596 32.5608 125.618 32.4872C125.648 32.4062 125.663 32.3399 125.663 32.2884C125.663 32.0159 125.608 31.7802 125.497 31.5813C125.394 31.3825 125.247 31.2278 125.055 31.1173C124.87 31.0068 124.653 30.9516 124.403 30.9516C124.101 30.9516 123.844 31.0179 123.629 31.1505C123.416 31.283 123.254 31.4746 123.144 31.7249C123.033 31.9753 122.974 32.2847 122.967 32.6529C122.967 33.0212 123.022 33.3342 123.132 33.592C123.243 33.8424 123.406 34.0339 123.619 34.1665C123.84 34.299 124.105 34.3653 124.414 34.3653C124.738 34.3653 125.022 34.299 125.265 34.1665C125.508 34.0339 125.71 33.8313 125.872 33.5588L126.9 33.9787C126.635 34.4353 126.292 34.7778 125.872 35.0061C125.452 35.2344 124.948 35.3486 124.359 35.3486ZM132.942 30.5318L132.411 35.2381H131.064L132.125 27.1181L135.295 32.3657L138.477 27.1181L139.537 35.2381H138.189L137.648 30.5318L135.295 34.52L132.942 30.5318ZM142.915 35.3486C142.4 35.3486 141.943 35.2381 141.545 35.0171C141.155 34.7962 140.853 34.4868 140.64 34.0891C140.426 33.6914 140.319 33.2274 140.319 32.6971C140.319 32.1595 140.426 31.6918 140.64 31.2941C140.861 30.8964 141.17 30.5908 141.567 30.3771C141.965 30.1562 142.433 30.0457 142.97 30.0457C143.508 30.0457 143.964 30.1488 144.341 30.355C144.716 30.5612 145.003 30.8595 145.202 31.2499C145.408 31.6328 145.511 32.0968 145.511 32.6419C145.511 32.7008 145.508 32.7634 145.501 32.8297C145.501 32.896 145.497 32.9439 145.489 32.9733H141.026V32.1558H144.473L144.108 32.664C144.13 32.6198 144.153 32.5608 144.175 32.4872C144.204 32.4062 144.219 32.3399 144.219 32.2884C144.219 32.0159 144.163 31.7802 144.053 31.5813C143.95 31.3825 143.802 31.2278 143.611 31.1173C143.427 31.0068 143.21 30.9516 142.96 30.9516C142.658 30.9516 142.4 31.0179 142.186 31.1505C141.973 31.283 141.81 31.4746 141.7 31.7249C141.589 31.9753 141.531 32.2847 141.523 32.6529C141.523 33.0212 141.579 33.3342 141.689 33.592C141.8 33.8424 141.962 34.0339 142.175 34.1665C142.396 34.299 142.662 34.3653 142.97 34.3653C143.295 34.3653 143.578 34.299 143.822 34.1665C144.064 34.0339 144.266 33.8313 144.429 33.5588L145.456 33.9787C145.191 34.4353 144.848 34.7778 144.429 35.0061C144.009 35.2344 143.504 35.3486 142.915 35.3486ZM145.943 30.1562H148.826V31.2057H145.943V30.1562ZM146.794 28.3886H147.976V35.2381H146.794V28.3886ZM150.842 26.6209V35.2381H149.649V26.6209H150.842ZM152.919 32.1447C152.919 31.7691 152.842 31.4856 152.687 31.2941C152.54 31.1026 152.3 31.0068 151.969 31.0068C151.748 31.0068 151.553 31.0548 151.384 31.1505C151.215 31.2462 151.082 31.3787 150.986 31.5482C150.89 31.7176 150.842 31.9165 150.842 32.1447H150.556C150.556 31.7397 150.629 31.3788 150.777 31.0621C150.923 30.7454 151.13 30.4913 151.395 30.2998C151.667 30.1083 151.995 30.0126 152.379 30.0126C152.754 30.0126 153.071 30.0862 153.328 30.2335C153.594 30.3808 153.792 30.6018 153.925 30.8964C154.058 31.1836 154.123 31.5445 154.123 31.979V35.2381H152.919V32.1447ZM155.25 32.6971C155.25 32.1742 155.368 31.7139 155.604 31.3162C155.847 30.9185 156.175 30.6091 156.587 30.3882C156.999 30.1599 157.467 30.0457 157.99 30.0457C158.513 30.0457 158.977 30.1599 159.382 30.3882C159.795 30.6091 160.122 30.9185 160.365 31.3162C160.608 31.7139 160.73 32.1742 160.73 32.6971C160.73 33.2127 160.608 33.673 160.365 34.0781C160.122 34.4758 159.795 34.7888 159.382 35.0171C158.977 35.2381 158.513 35.3486 157.99 35.3486C157.467 35.3486 156.999 35.2381 156.587 35.0171C156.175 34.7888 155.847 34.4758 155.604 34.0781C155.368 33.673 155.25 33.2127 155.25 32.6971ZM156.477 32.6971C156.477 33.0138 156.543 33.2937 156.676 33.5368C156.808 33.7725 156.989 33.9603 157.217 34.1002C157.445 34.2327 157.703 34.299 157.99 34.299C158.27 34.299 158.524 34.2327 158.753 34.1002C158.988 33.9603 159.172 33.7725 159.305 33.5368C159.437 33.2937 159.503 33.0138 159.503 32.6971C159.503 32.3805 159.437 32.1006 159.305 31.8575C159.172 31.6145 158.988 31.4267 158.753 31.2941C158.524 31.1615 158.27 31.0952 157.99 31.0952C157.703 31.0952 157.445 31.1615 157.217 31.2941C156.989 31.4267 156.808 31.6145 156.676 31.8575C156.543 32.1006 156.477 32.3805 156.477 32.6971ZM165.684 26.6209H166.889V35.2381H165.684V26.6209ZM161.476 32.6971C161.476 32.1374 161.59 31.6624 161.817 31.272C162.046 30.8743 162.348 30.5723 162.724 30.3661C163.107 30.1525 163.516 30.0457 163.95 30.0457C164.377 30.0457 164.749 30.1525 165.066 30.3661C165.39 30.5797 165.644 30.8853 165.828 31.283C166.019 31.6734 166.115 32.1448 166.115 32.6971C166.115 33.2422 166.019 33.7135 165.828 34.1112C165.644 34.5089 165.39 34.8146 165.066 35.0282C164.749 35.2418 164.377 35.3486 163.95 35.3486C163.516 35.3486 163.107 35.2454 162.724 35.0392C162.348 34.8256 162.046 34.52 161.817 34.1223C161.59 33.7246 161.476 33.2495 161.476 32.6971ZM162.713 32.6971C162.713 33.0359 162.782 33.3268 162.922 33.5699C163.062 33.8129 163.247 33.997 163.475 34.1223C163.711 34.2475 163.965 34.3101 164.237 34.3101C164.466 34.3101 164.69 34.2475 164.911 34.1223C165.139 33.997 165.323 33.8167 165.463 33.5809C165.611 33.3379 165.684 33.0433 165.684 32.6971C165.684 32.3509 165.611 32.0601 165.463 31.8244C165.323 31.5813 165.139 31.3972 164.911 31.272C164.69 31.1468 164.466 31.0842 164.237 31.0842C163.965 31.0842 163.711 31.1468 163.475 31.272C163.247 31.3972 163.062 31.5813 162.922 31.8244C162.782 32.0674 162.713 32.3584 162.713 32.6971ZM168.323 28.1345C168.323 27.9283 168.397 27.7551 168.544 27.6152C168.699 27.4753 168.875 27.4053 169.074 27.4053C169.288 27.4053 169.465 27.4753 169.605 27.6152C169.753 27.7551 169.826 27.9283 169.826 28.1345C169.826 28.3333 169.753 28.5064 169.605 28.6537C169.465 28.7936 169.288 28.8636 169.074 28.8636C168.875 28.8636 168.699 28.7936 168.544 28.6537C168.397 28.5064 168.323 28.3333 168.323 28.1345ZM168.489 30.1562H169.66V35.2381H168.489V30.1562ZM171.534 33.5699C171.696 33.7467 171.858 33.9013 172.02 34.0339C172.19 34.1591 172.359 34.2548 172.529 34.3211C172.697 34.3801 172.867 34.4095 173.036 34.4095C173.25 34.4095 173.415 34.3616 173.533 34.2659C173.659 34.1702 173.721 34.0376 173.721 33.8682C173.721 33.7208 173.673 33.5957 173.578 33.4926C173.482 33.3821 173.35 33.29 173.18 33.2164C173.011 33.1353 172.812 33.0544 172.584 32.9733C172.355 32.8849 172.127 32.7818 171.898 32.664C171.677 32.5387 171.493 32.3768 171.346 32.1779C171.206 31.979 171.136 31.7287 171.136 31.4267C171.136 31.1173 171.213 30.8595 171.369 30.6533C171.531 30.4471 171.744 30.2961 172.009 30.2004C172.281 30.0972 172.573 30.0457 172.882 30.0457C173.162 30.0457 173.423 30.0862 173.666 30.1672C173.916 30.2483 174.141 30.355 174.34 30.4876C174.539 30.6202 174.709 30.7711 174.849 30.9406L174.186 31.6476C174.016 31.4488 173.813 31.2868 173.578 31.1615C173.342 31.0363 173.099 30.9737 172.849 30.9737C172.679 30.9737 172.539 31.0106 172.429 31.0842C172.318 31.1578 172.263 31.2647 172.263 31.4046C172.263 31.5224 172.311 31.6292 172.407 31.7249C172.51 31.8133 172.642 31.8944 172.805 31.968C172.973 32.0416 173.162 32.1189 173.368 32.2C173.648 32.3105 173.906 32.432 174.141 32.5646C174.377 32.6971 174.565 32.8591 174.705 33.0507C174.852 33.2422 174.926 33.4926 174.926 33.8019C174.926 34.2807 174.76 34.6673 174.429 34.9619C174.104 35.2491 173.662 35.3927 173.103 35.3927C172.756 35.3927 172.436 35.3412 172.142 35.2381C171.854 35.1276 171.6 34.9877 171.379 34.8183C171.166 34.6415 170.985 34.4574 170.838 34.2659L171.534 33.5699ZM175.277 30.1562H178.161V31.2057H175.277V30.1562ZM176.128 28.3886H177.31V35.2381H176.128V28.3886ZM183.356 31.3714C183.356 31.9165 183.477 32.3951 183.721 32.8076C183.971 33.2201 184.295 33.5405 184.693 33.7687C185.098 33.9897 185.536 34.1002 186.008 34.1002C186.376 34.1002 186.708 34.0523 187.002 33.9566C187.296 33.8608 187.562 33.7319 187.797 33.5699C188.04 33.4005 188.25 33.2127 188.427 33.0065V34.5531C188.103 34.8183 187.753 35.0208 187.377 35.1608C187.002 35.3007 186.53 35.3707 185.964 35.3707C185.396 35.3707 184.866 35.2749 184.372 35.0834C183.887 34.8919 183.463 34.6157 183.102 34.2548C182.741 33.894 182.457 33.4705 182.251 32.9844C182.052 32.4909 181.953 31.9532 181.953 31.3714C181.953 30.7896 182.052 30.2556 182.251 29.7695C182.457 29.2761 182.741 28.8488 183.102 28.488C183.463 28.1271 183.887 27.8509 184.372 27.6594C184.866 27.4679 185.396 27.3722 185.964 27.3722C186.53 27.3722 187.002 27.4422 187.377 27.5821C187.753 27.722 188.103 27.9246 188.427 28.1897V29.7364C188.25 29.5302 188.04 29.346 187.797 29.184C187.562 29.0146 187.296 28.882 187.002 28.7863C186.708 28.6906 186.376 28.6427 186.008 28.6427C185.536 28.6427 185.098 28.7568 184.693 28.9851C184.295 29.2061 183.971 29.5228 183.721 29.9352C183.477 30.3403 183.356 30.819 183.356 31.3714ZM191.127 26.6209V35.2381H189.934V26.6209H191.127ZM193.204 32.1447C193.204 31.7691 193.126 31.4856 192.972 31.2941C192.825 31.1026 192.586 31.0068 192.254 31.0068C192.033 31.0068 191.838 31.0548 191.668 31.1505C191.499 31.2462 191.367 31.3787 191.27 31.5482C191.175 31.7176 191.127 31.9165 191.127 32.1447H190.84C190.84 31.7397 190.913 31.3788 191.061 31.0621C191.207 30.7454 191.414 30.4913 191.679 30.2998C191.952 30.1083 192.28 30.0126 192.663 30.0126C193.038 30.0126 193.355 30.0862 193.612 30.2335C193.878 30.3808 194.077 30.6018 194.209 30.8964C194.342 31.1836 194.408 31.5445 194.408 31.979V35.2381H193.204V32.1447ZM197.147 33.2495C197.147 33.6104 197.225 33.8903 197.38 34.0891C197.534 34.288 197.77 34.3874 198.086 34.3874C198.315 34.3874 198.514 34.3432 198.684 34.2548C198.853 34.1591 198.985 34.0266 199.081 33.8571C199.177 33.6804 199.224 33.4778 199.224 33.2495V30.1562H200.418V35.2381H199.224V34.4537C199.063 34.7483 198.853 34.9729 198.595 35.1276C198.344 35.2749 198.043 35.3486 197.689 35.3486C197.122 35.3486 196.684 35.1718 196.374 34.8183C196.072 34.4648 195.922 33.986 195.922 33.3821V30.1562H197.147V33.2495ZM203.123 30.1562V35.2381H201.942V30.1562H203.123ZM204.637 31.4267C204.526 31.3383 204.423 31.272 204.327 31.2278C204.232 31.1836 204.11 31.1615 203.963 31.1615C203.764 31.1615 203.603 31.213 203.477 31.3162C203.352 31.4193 203.26 31.5629 203.201 31.747C203.149 31.9238 203.123 32.1337 203.123 32.3768L202.725 32.1447C202.725 31.7397 202.8 31.3825 202.946 31.0731C203.102 30.7565 203.297 30.506 203.532 30.3219C203.775 30.1378 204.025 30.0457 204.283 30.0457C204.467 30.0457 204.641 30.0751 204.803 30.1341C204.964 30.1856 205.101 30.2814 205.211 30.4213L204.637 31.4267ZM206.663 32.6971C206.663 33.0212 206.734 33.3048 206.874 33.5478C207.014 33.7835 207.202 33.9713 207.437 34.1112C207.681 34.2511 207.949 34.3211 208.243 34.3211C208.486 34.3211 208.719 34.2843 208.94 34.2107C209.161 34.137 209.356 34.0339 209.525 33.9013C209.695 33.7688 209.82 33.6214 209.901 33.4594V34.7741C209.724 34.9508 209.484 35.0908 209.182 35.1939C208.881 35.297 208.549 35.3486 208.188 35.3486C207.665 35.3486 207.194 35.2381 206.774 35.0171C206.362 34.7888 206.034 34.4758 205.791 34.0781C205.556 33.673 205.438 33.2127 205.438 32.6971C205.438 32.1742 205.556 31.7139 205.791 31.3162C206.034 30.9185 206.362 30.6091 206.774 30.3882C207.194 30.1599 207.665 30.0457 208.188 30.0457C208.549 30.0457 208.881 30.0972 209.182 30.2004C209.484 30.3035 209.724 30.4434 209.901 30.6202V31.9348C209.82 31.7654 209.691 31.6182 209.514 31.4929C209.344 31.3604 209.149 31.2572 208.928 31.1836C208.707 31.11 208.48 31.0731 208.243 31.0731C207.949 31.0731 207.681 31.1431 207.437 31.283C207.202 31.4229 207.014 31.6145 206.874 31.8575C206.734 32.1006 206.663 32.3805 206.663 32.6971ZM212.413 26.6209V35.2381H211.22V26.6209H212.413ZM214.49 32.1447C214.49 31.7691 214.412 31.4856 214.258 31.2941C214.11 31.1026 213.871 31.0068 213.54 31.0068C213.319 31.0068 213.123 31.0548 212.954 31.1505C212.784 31.2462 212.652 31.3787 212.557 31.5482C212.46 31.7176 212.413 31.9165 212.413 32.1447H212.125C212.125 31.7397 212.2 31.3788 212.346 31.0621C212.494 30.7454 212.7 30.4913 212.965 30.2998C213.238 30.1083 213.565 30.0126 213.948 30.0126C214.324 30.0126 214.64 30.0862 214.899 30.2335C215.163 30.3808 215.362 30.6018 215.495 30.8964C215.627 31.1836 215.694 31.5445 215.694 31.979V35.2381H214.49V32.1447Z" fill="black"/>
<path d="M17.1372 18.199L0 17.2712C1.48449 5.8753 11.4975 1.64371 16.3185 0.952393L17.1372 18.199Z" fill="#C51718"/>
<path d="M20.7938 18.199L21.7216 0.952393C33.8159 3.22282 37.6762 12.8139 38.0947 17.3257L20.7938 18.199Z" fill="#C51718"/>
<path d="M20.7938 21.8011L38.0947 22.7834C36.3045 34.485 26.3607 38.4654 21.6125 38.9931L20.7938 21.8011Z" fill="#C51718"/>
<path d="M17.1372 21.8011L16.1001 39.0476C3.96228 36.6899 0.309269 27.1497 0 22.6743L17.1372 21.8011Z" fill="#C51718"/>
</svg>
